<?xml version="1.0" encoding="UTF-8" standalone="no"?>
<!DOCTYPE svg PUBLIC "-//W3C//DTD SVG 1.1//EN"
 "http://www.w3.org/Graphics/SVG/1.1/DTD/svg11.dtd">
<!-- Generated by graphviz version 2.47.3 (20210619.1520)
 -->
<!-- Title: dependencies Pages: 1 -->
<svg width="2766pt" height="247pt"
 viewBox="0.00 0.00 2766.00 246.80" xmlns="http://www.w3.org/2000/svg" xmlns:xlink="http://www.w3.org/1999/xlink">
<g id="graph0" class="graph" transform="scale(1 1) rotate(0) translate(4 242.8)">
<title>dependencies</title>
<polygon fill="white" stroke="transparent" points="-4,4 -4,-242.8 2762,-242.8 2762,4 -4,4"/>
<text text-anchor="middle" x="1379" y="-8.2" font-family="sans-serif" font-size="14.00">dependencies</text>
<g id="clust1" class="cluster">
<title>cluster_AppModule</title>
<polygon fill="none" stroke="black" stroke-dasharray="1,5" points="8,-32.8 8,-230.8 2750,-230.8 2750,-32.8 8,-32.8"/>
</g>
<g id="clust2" class="cluster">
<title>cluster_AppModule_declarations</title>
<polygon fill="none" stroke="black" points="168,-40.8 168,-92.8 2742,-92.8 2742,-40.8 168,-40.8"/>
</g>
<g id="clust20" class="cluster">
<title>cluster_AppModule_imports</title>
<polygon fill="none" stroke="black" points="16,-40.8 16,-92.8 160,-92.8 160,-40.8 16,-40.8"/>
</g>
<g id="clust22" class="cluster">
<title>cluster_AppModule_bootstrap</title>
<polygon fill="none" stroke="black" points="1405,-170.8 1405,-222.8 1529,-222.8 1529,-170.8 1405,-170.8"/>
</g>
<!-- AlertaComponent -->
<g id="node1" class="node">
<title>AlertaComponent</title>
<polygon fill="#ffffb3" stroke="black" points="2734.31,-84.8 2617.69,-84.8 2617.69,-48.8 2734.31,-48.8 2734.31,-84.8"/>
<text text-anchor="middle" x="2676" y="-62.6" font-family="Times,serif" font-size="14.00">AlertaComponent</text>
</g>
<!-- AppModule -->
<g id="node18" class="node">
<title>AppModule</title>
<polygon fill="#8dd3c7" stroke="black" points="1508.66,-149.8 1505.66,-153.8 1484.66,-153.8 1481.66,-149.8 1425.34,-149.8 1425.34,-113.8 1508.66,-113.8 1508.66,-149.8"/>
<text text-anchor="middle" x="1467" y="-127.6" font-family="Times,serif" font-size="14.00">AppModule</text>
</g>
<!-- AlertaComponent&#45;&gt;AppModule -->
<g id="edge1" class="edge">
<title>AlertaComponent&#45;&gt;AppModule</title>
<path fill="none" stroke="black" d="M2676,-85.12C2676,-108.46 2676,-145.8 2676,-145.8 2676,-145.8 1518.97,-145.8 1518.97,-145.8"/>
<polygon fill="black" stroke="black" points="1518.97,-142.3 1508.97,-145.8 1518.97,-149.3 1518.97,-142.3"/>
</g>
<!-- AppComponent -->
<g id="node2" class="node">
<title>AppComponent</title>
<polygon fill="#ffffb3" stroke="black" points="2599.94,-84.8 2494.06,-84.8 2494.06,-48.8 2599.94,-48.8 2599.94,-84.8"/>
<text text-anchor="middle" x="2547" y="-62.6" font-family="Times,serif" font-size="14.00">AppComponent</text>
</g>
<!-- AppComponent&#45;&gt;AppModule -->
<g id="edge2" class="edge">
<title>AppComponent&#45;&gt;AppModule</title>
<path fill="none" stroke="black" d="M2547,-84.96C2547,-107.15 2547,-141.8 2547,-141.8 2547,-141.8 1518.68,-141.8 1518.68,-141.8"/>
<polygon fill="black" stroke="black" points="1518.68,-138.3 1508.68,-141.8 1518.68,-145.3 1518.68,-138.3"/>
</g>
<!-- CadastrarComponent -->
<g id="node3" class="node">
<title>CadastrarComponent</title>
<polygon fill="#ffffb3" stroke="black" points="2476.47,-84.8 2341.53,-84.8 2341.53,-48.8 2476.47,-48.8 2476.47,-84.8"/>
<text text-anchor="middle" x="2409" y="-62.6" font-family="Times,serif" font-size="14.00">CadastrarComponent</text>
</g>
<!-- CadastrarComponent&#45;&gt;AppModule -->
<g id="edge3" class="edge">
<title>CadastrarComponent&#45;&gt;AppModule</title>
<path fill="none" stroke="black" d="M2409,-85.08C2409,-106.12 2409,-137.8 2409,-137.8 2409,-137.8 1518.69,-137.8 1518.69,-137.8"/>
<polygon fill="black" stroke="black" points="1518.69,-134.3 1508.69,-137.8 1518.69,-141.3 1518.69,-134.3"/>
</g>
<!-- CategoriaComponent -->
<g id="node4" class="node">
<title>CategoriaComponent</title>
<polygon fill="#ffffb3" stroke="black" points="2323.75,-84.8 2188.25,-84.8 2188.25,-48.8 2323.75,-48.8 2323.75,-84.8"/>
<text text-anchor="middle" x="2256" y="-62.6" font-family="Times,serif" font-size="14.00">CategoriaComponent</text>
</g>
<!-- CategoriaComponent&#45;&gt;AppModule -->
<g id="edge4" class="edge">
<title>CategoriaComponent&#45;&gt;AppModule</title>
<path fill="none" stroke="black" d="M2256,-85.11C2256,-104.95 2256,-133.8 2256,-133.8 2256,-133.8 1518.86,-133.8 1518.86,-133.8"/>
<polygon fill="black" stroke="black" points="1518.86,-130.3 1508.86,-133.8 1518.86,-137.3 1518.86,-130.3"/>
</g>
<!-- CategoriasComponent -->
<g id="node5" class="node">
<title>CategoriasComponent</title>
<polygon fill="#ffffb3" stroke="black" points="2170.7,-84.8 2029.3,-84.8 2029.3,-48.8 2170.7,-48.8 2170.7,-84.8"/>
<text text-anchor="middle" x="2100" y="-62.6" font-family="Times,serif" font-size="14.00">CategoriasComponent</text>
</g>
<!-- CategoriasComponent&#45;&gt;AppModule -->
<g id="edge5" class="edge">
<title>CategoriasComponent&#45;&gt;AppModule</title>
<path fill="none" stroke="black" d="M2100,-85.02C2100,-103.63 2100,-129.8 2100,-129.8 2100,-129.8 1519.02,-129.8 1519.02,-129.8"/>
<polygon fill="black" stroke="black" points="1519.02,-126.3 1509.02,-129.8 1519.02,-133.3 1519.02,-126.3"/>
</g>
<!-- ContatoComponent -->
<g id="node6" class="node">
<title>ContatoComponent</title>
<polygon fill="#ffffb3" stroke="black" points="2011.67,-84.8 1886.33,-84.8 1886.33,-48.8 2011.67,-48.8 2011.67,-84.8"/>
<text text-anchor="middle" x="1949" y="-62.6" font-family="Times,serif" font-size="14.00">ContatoComponent</text>
</g>
<!-- ContatoComponent&#45;&gt;AppModule -->
<g id="edge6" class="edge">
<title>ContatoComponent&#45;&gt;AppModule</title>
<path fill="none" stroke="black" d="M1949,-84.82C1949,-102.17 1949,-125.8 1949,-125.8 1949,-125.8 1518.93,-125.8 1518.93,-125.8"/>
<polygon fill="black" stroke="black" points="1518.93,-122.3 1508.93,-125.8 1518.93,-129.3 1518.93,-122.3"/>
</g>
<!-- EntrarComponent -->
<g id="node7" class="node">
<title>EntrarComponent</title>
<polygon fill="#ffffb3" stroke="black" points="1868.31,-84.8 1751.69,-84.8 1751.69,-48.8 1868.31,-48.8 1868.31,-84.8"/>
<text text-anchor="middle" x="1810" y="-62.6" font-family="Times,serif" font-size="14.00">EntrarComponent</text>
</g>
<!-- EntrarComponent&#45;&gt;AppModule -->
<g id="edge7" class="edge">
<title>EntrarComponent&#45;&gt;AppModule</title>
<path fill="none" stroke="black" d="M1810,-84.81C1810,-100.85 1810,-121.8 1810,-121.8 1810,-121.8 1518.72,-121.8 1518.72,-121.8"/>
<polygon fill="black" stroke="black" points="1518.72,-118.3 1508.72,-121.8 1518.72,-125.3 1518.72,-118.3"/>
</g>
<!-- InicioComponent -->
<g id="node8" class="node">
<title>InicioComponent</title>
<polygon fill="#ffffb3" stroke="black" points="1733.99,-84.8 1620.01,-84.8 1620.01,-48.8 1733.99,-48.8 1733.99,-84.8"/>
<text text-anchor="middle" x="1677" y="-62.6" font-family="Times,serif" font-size="14.00">InicioComponent</text>
</g>
<!-- InicioComponent&#45;&gt;AppModule -->
<g id="edge8" class="edge">
<title>InicioComponent&#45;&gt;AppModule</title>
<path fill="none" stroke="black" d="M1677,-84.92C1677,-99.58 1677,-117.8 1677,-117.8 1677,-117.8 1518.74,-117.8 1518.74,-117.8"/>
<polygon fill="black" stroke="black" points="1518.74,-114.3 1508.74,-117.8 1518.74,-121.3 1518.74,-114.3"/>
</g>
<!-- MenuComponent -->
<g id="node9" class="node">
<title>MenuComponent</title>
<polygon fill="#ffffb3" stroke="black" points="1601.99,-84.8 1488.01,-84.8 1488.01,-48.8 1601.99,-48.8 1601.99,-84.8"/>
<text text-anchor="middle" x="1545" y="-62.6" font-family="Times,serif" font-size="14.00">MenuComponent</text>
</g>
<!-- MenuComponent&#45;&gt;AppModule -->
<g id="edge9" class="edge">
<title>MenuComponent&#45;&gt;AppModule</title>
<path fill="none" stroke="black" d="M1498.42,-84.91C1498.42,-84.91 1498.42,-103.79 1498.42,-103.79"/>
<polygon fill="black" stroke="black" points="1494.92,-103.79 1498.42,-113.79 1501.92,-103.79 1494.92,-103.79"/>
</g>
<!-- MeusanunciosComponent -->
<g id="node10" class="node">
<title>MeusanunciosComponent</title>
<polygon fill="#ffffb3" stroke="black" points="1470.2,-84.8 1307.8,-84.8 1307.8,-48.8 1470.2,-48.8 1470.2,-84.8"/>
<text text-anchor="middle" x="1389" y="-62.6" font-family="Times,serif" font-size="14.00">MeusanunciosComponent</text>
</g>
<!-- MeusanunciosComponent&#45;&gt;AppModule -->
<g id="edge10" class="edge">
<title>MeusanunciosComponent&#45;&gt;AppModule</title>
<path fill="none" stroke="black" d="M1447.64,-84.91C1447.64,-84.91 1447.64,-103.79 1447.64,-103.79"/>
<polygon fill="black" stroke="black" points="1444.14,-103.79 1447.64,-113.79 1451.14,-103.79 1444.14,-103.79"/>
</g>
<!-- PesquisaComponent -->
<g id="node11" class="node">
<title>PesquisaComponent</title>
<polygon fill="#ffffb3" stroke="black" points="1290.32,-84.8 1159.68,-84.8 1159.68,-48.8 1290.32,-48.8 1290.32,-84.8"/>
<text text-anchor="middle" x="1225" y="-62.6" font-family="Times,serif" font-size="14.00">PesquisaComponent</text>
</g>
<!-- PesquisaComponent&#45;&gt;AppModule -->
<g id="edge11" class="edge">
<title>PesquisaComponent&#45;&gt;AppModule</title>
<path fill="none" stroke="black" d="M1225,-84.92C1225,-99.58 1225,-117.8 1225,-117.8 1225,-117.8 1415.12,-117.8 1415.12,-117.8"/>
<polygon fill="black" stroke="black" points="1415.12,-121.3 1425.12,-117.8 1415.12,-114.3 1415.12,-121.3"/>
</g>
<!-- ProdutoDeleteComponent -->
<g id="node12" class="node">
<title>ProdutoDeleteComponent</title>
<polygon fill="#ffffb3" stroke="black" points="1142.2,-84.8 979.8,-84.8 979.8,-48.8 1142.2,-48.8 1142.2,-84.8"/>
<text text-anchor="middle" x="1061" y="-62.6" font-family="Times,serif" font-size="14.00">ProdutoDeleteComponent</text>
</g>
<!-- ProdutoDeleteComponent&#45;&gt;AppModule -->
<g id="edge12" class="edge">
<title>ProdutoDeleteComponent&#45;&gt;AppModule</title>
<path fill="none" stroke="black" d="M1061,-84.81C1061,-100.85 1061,-121.8 1061,-121.8 1061,-121.8 1415.08,-121.8 1415.08,-121.8"/>
<polygon fill="black" stroke="black" points="1415.08,-125.3 1425.08,-121.8 1415.08,-118.3 1415.08,-125.3"/>
</g>
<!-- ProdutoEditComponent -->
<g id="node13" class="node">
<title>ProdutoEditComponent</title>
<polygon fill="#ffffb3" stroke="black" points="961.5,-84.8 812.5,-84.8 812.5,-48.8 961.5,-48.8 961.5,-84.8"/>
<text text-anchor="middle" x="887" y="-62.6" font-family="Times,serif" font-size="14.00">ProdutoEditComponent</text>
</g>
<!-- ProdutoEditComponent&#45;&gt;AppModule -->
<g id="edge13" class="edge">
<title>ProdutoEditComponent&#45;&gt;AppModule</title>
<path fill="none" stroke="black" d="M887,-84.82C887,-102.17 887,-125.8 887,-125.8 887,-125.8 1415.29,-125.8 1415.29,-125.8"/>
<polygon fill="black" stroke="black" points="1415.29,-129.3 1425.29,-125.8 1415.29,-122.3 1415.29,-129.3"/>
</g>
<!-- RodapeComponent -->
<g id="node14" class="node">
<title>RodapeComponent</title>
<polygon fill="#ffffb3" stroke="black" points="794.1,-84.8 669.9,-84.8 669.9,-48.8 794.1,-48.8 794.1,-84.8"/>
<text text-anchor="middle" x="732" y="-62.6" font-family="Times,serif" font-size="14.00">RodapeComponent</text>
</g>
<!-- RodapeComponent&#45;&gt;AppModule -->
<g id="edge14" class="edge">
<title>RodapeComponent&#45;&gt;AppModule</title>
<path fill="none" stroke="black" d="M732,-85.02C732,-103.63 732,-129.8 732,-129.8 732,-129.8 1415.11,-129.8 1415.11,-129.8"/>
<polygon fill="black" stroke="black" points="1415.11,-133.3 1425.11,-129.8 1415.11,-126.3 1415.11,-133.3"/>
</g>
<!-- SobrenosComponent -->
<g id="node15" class="node">
<title>SobrenosComponent</title>
<polygon fill="#ffffb3" stroke="black" points="651.94,-84.8 518.06,-84.8 518.06,-48.8 651.94,-48.8 651.94,-84.8"/>
<text text-anchor="middle" x="585" y="-62.6" font-family="Times,serif" font-size="14.00">SobrenosComponent</text>
</g>
<!-- SobrenosComponent&#45;&gt;AppModule -->
<g id="edge15" class="edge">
<title>SobrenosComponent&#45;&gt;AppModule</title>
<path fill="none" stroke="black" d="M585,-85.11C585,-104.95 585,-133.8 585,-133.8 585,-133.8 1415.05,-133.8 1415.05,-133.8"/>
<polygon fill="black" stroke="black" points="1415.05,-137.3 1425.05,-133.8 1415.05,-130.3 1415.05,-137.3"/>
</g>
<!-- TodasCategoriasComponent -->
<g id="node16" class="node">
<title>TodasCategoriasComponent</title>
<polygon fill="#ffffb3" stroke="black" points="500.91,-84.8 325.09,-84.8 325.09,-48.8 500.91,-48.8 500.91,-84.8"/>
<text text-anchor="middle" x="413" y="-62.6" font-family="Times,serif" font-size="14.00">TodasCategoriasComponent</text>
</g>
<!-- TodasCategoriasComponent&#45;&gt;AppModule -->
<g id="edge16" class="edge">
<title>TodasCategoriasComponent&#45;&gt;AppModule</title>
<path fill="none" stroke="black" d="M413,-85.08C413,-106.12 413,-137.8 413,-137.8 413,-137.8 1415.03,-137.8 1415.03,-137.8"/>
<polygon fill="black" stroke="black" points="1415.03,-141.3 1425.03,-137.8 1415.03,-134.3 1415.03,-141.3"/>
</g>
<!-- UserEditComponent -->
<g id="node17" class="node">
<title>UserEditComponent</title>
<polygon fill="#ffffb3" stroke="black" points="307.59,-84.8 176.41,-84.8 176.41,-48.8 307.59,-48.8 307.59,-84.8"/>
<text text-anchor="middle" x="242" y="-62.6" font-family="Times,serif" font-size="14.00">UserEditComponent</text>
</g>
<!-- UserEditComponent&#45;&gt;AppModule -->
<g id="edge17" class="edge">
<title>UserEditComponent&#45;&gt;AppModule</title>
<path fill="none" stroke="black" d="M242,-84.96C242,-107.15 242,-141.8 242,-141.8 242,-141.8 1415.19,-141.8 1415.19,-141.8"/>
<polygon fill="black" stroke="black" points="1415.19,-145.3 1425.19,-141.8 1415.19,-138.3 1415.19,-145.3"/>
</g>
<!-- AppComponent  -->
<g id="node20" class="node">
<title>AppComponent </title>
<polygon fill="#80b1d3" stroke="black" points="1521.44,-214.8 1412.56,-214.8 1412.56,-178.8 1521.44,-178.8 1521.44,-214.8"/>
<text text-anchor="middle" x="1467" y="-192.6" font-family="Times,serif" font-size="14.00">AppComponent </text>
</g>
<!-- AppModule&#45;&gt;AppComponent  -->
<g id="edge19" class="edge">
<title>AppModule&#45;&gt;AppComponent </title>
<path fill="none" stroke="black" stroke-dasharray="1,5" d="M1467,-149.91C1467,-149.91 1467,-168.79 1467,-168.79"/>
<polygon fill="black" stroke="black" points="1463.5,-168.79 1467,-178.79 1470.5,-168.79 1463.5,-168.79"/>
</g>
<!-- AppRoutingModule -->
<g id="node19" class="node">
<title>AppRoutingModule</title>
<polygon fill="#8dd3c7" stroke="black" points="152.27,-84.8 149.27,-88.8 128.27,-88.8 125.27,-84.8 23.73,-84.8 23.73,-48.8 152.27,-48.8 152.27,-84.8"/>
<text text-anchor="middle" x="88" y="-62.6" font-family="Times,serif" font-size="14.00">AppRoutingModule</text>
</g>
<!-- AppRoutingModule&#45;&gt;AppModule -->
<g id="edge18" class="edge">
<title>AppRoutingModule&#45;&gt;AppModule</title>
<path fill="none" stroke="black" d="M88,-85.12C88,-108.46 88,-145.8 88,-145.8 88,-145.8 1414.98,-145.8 1414.98,-145.8"/>
<polygon fill="black" stroke="black" points="1414.98,-149.3 1424.98,-145.8 1414.98,-142.3 1414.98,-149.3"/>
</g>
</g>
</svg>
