<?xml version="1.0" encoding="UTF-8" standalone="no"?>
<!DOCTYPE svg PUBLIC "-//W3C//DTD SVG 1.1//EN"
 "http://www.w3.org/Graphics/SVG/1.1/DTD/svg11.dtd">
<!-- Generated by graphviz version 2.47.3 (20210619.1520)
 -->
<!-- Title: dependencies Pages: 1 -->
<svg width="2766pt" height="247pt"
 viewBox="0.00 0.00 2766.00 246.80" xmlns="http://www.w3.org/2000/svg" xmlns:xlink="http://www.w3.org/1999/xlink">
<g id="graph0" class="graph" transform="scale(1 1) rotate(0) translate(4 242.8)">
<title>dependencies</title>
<polygon fill="white" stroke="transparent" points="-4,4 -4,-242.8 2762,-242.8 2762,4 -4,4"/>
<text text-anchor="middle" x="1379" y="-8.2" font-family="sans-serif" font-size="14.00">dependencies</text>
<g id="clust1" class="cluster">
<title>cluster_AppModule</title>
<polygon fill="none" stroke="black" stroke-dasharray="1,5" points="8,-32.8 8,-230.8 2750,-230.8 2750,-32.8 8,-32.8"/>
</g>
<g id="clust20" class="cluster">
<title>cluster_AppModule_imports</title>
<polygon fill="none" stroke="black" points="2598,-40.8 2598,-92.8 2742,-92.8 2742,-40.8 2598,-40.8"/>
</g>
<g id="clust22" class="cluster">
<title>cluster_AppModule_bootstrap</title>
<polygon fill="none" stroke="black" points="1397,-170.8 1397,-222.8 1521,-222.8 1521,-170.8 1397,-170.8"/>
</g>
<g id="clust2" class="cluster">
<title>cluster_AppModule_declarations</title>
<polygon fill="none" stroke="black" points="16,-40.8 16,-92.8 2590,-92.8 2590,-40.8 16,-40.8"/>
</g>
<!-- AlertaComponent -->
<g id="node1" class="node">
<title>AlertaComponent</title>
<polygon fill="#ffffb3" stroke="black" points="2582.31,-84.8 2465.69,-84.8 2465.69,-48.8 2582.31,-48.8 2582.31,-84.8"/>
<text text-anchor="middle" x="2524" y="-62.6" font-family="Times,serif" font-size="14.00">AlertaComponent</text>
</g>
<!-- AppModule -->
<g id="node18" class="node">
<title>AppModule</title>
<polygon fill="#8dd3c7" stroke="black" points="1500.66,-149.8 1497.66,-153.8 1476.66,-153.8 1473.66,-149.8 1417.34,-149.8 1417.34,-113.8 1500.66,-113.8 1500.66,-149.8"/>
<text text-anchor="middle" x="1459" y="-127.6" font-family="Times,serif" font-size="14.00">AppModule</text>
</g>
<!-- AlertaComponent&#45;&gt;AppModule -->
<g id="edge1" class="edge">
<title>AlertaComponent&#45;&gt;AppModule</title>
<path fill="none" stroke="black" d="M2524,-84.96C2524,-107.15 2524,-141.8 2524,-141.8 2524,-141.8 1510.75,-141.8 1510.75,-141.8"/>
<polygon fill="black" stroke="black" points="1510.75,-138.3 1500.75,-141.8 1510.75,-145.3 1510.75,-138.3"/>
</g>
<!-- AppComponent -->
<g id="node2" class="node">
<title>AppComponent</title>
<polygon fill="#ffffb3" stroke="black" points="2447.94,-84.8 2342.06,-84.8 2342.06,-48.8 2447.94,-48.8 2447.94,-84.8"/>
<text text-anchor="middle" x="2395" y="-62.6" font-family="Times,serif" font-size="14.00">AppComponent</text>
</g>
<!-- AppComponent&#45;&gt;AppModule -->
<g id="edge2" class="edge">
<title>AppComponent&#45;&gt;AppModule</title>
<path fill="none" stroke="black" d="M2395,-85.08C2395,-106.12 2395,-137.8 2395,-137.8 2395,-137.8 1510.73,-137.8 1510.73,-137.8"/>
<polygon fill="black" stroke="black" points="1510.73,-134.3 1500.73,-137.8 1510.73,-141.3 1510.73,-134.3"/>
</g>
<!-- CadastrarComponent -->
<g id="node3" class="node">
<title>CadastrarComponent</title>
<polygon fill="#ffffb3" stroke="black" points="2324.47,-84.8 2189.53,-84.8 2189.53,-48.8 2324.47,-48.8 2324.47,-84.8"/>
<text text-anchor="middle" x="2257" y="-62.6" font-family="Times,serif" font-size="14.00">CadastrarComponent</text>
</g>
<!-- CadastrarComponent&#45;&gt;AppModule -->
<g id="edge3" class="edge">
<title>CadastrarComponent&#45;&gt;AppModule</title>
<path fill="none" stroke="black" d="M2257,-85.11C2257,-104.95 2257,-133.8 2257,-133.8 2257,-133.8 1510.78,-133.8 1510.78,-133.8"/>
<polygon fill="black" stroke="black" points="1510.78,-130.3 1500.78,-133.8 1510.78,-137.3 1510.78,-130.3"/>
</g>
<!-- CategoriaComponent -->
<g id="node4" class="node">
<title>CategoriaComponent</title>
<polygon fill="#ffffb3" stroke="black" points="2171.75,-84.8 2036.25,-84.8 2036.25,-48.8 2171.75,-48.8 2171.75,-84.8"/>
<text text-anchor="middle" x="2104" y="-62.6" font-family="Times,serif" font-size="14.00">CategoriaComponent</text>
</g>
<!-- CategoriaComponent&#45;&gt;AppModule -->
<g id="edge4" class="edge">
<title>CategoriaComponent&#45;&gt;AppModule</title>
<path fill="none" stroke="black" d="M2104,-85.02C2104,-103.63 2104,-129.8 2104,-129.8 2104,-129.8 1510.82,-129.8 1510.82,-129.8"/>
<polygon fill="black" stroke="black" points="1510.82,-126.3 1500.82,-129.8 1510.82,-133.3 1510.82,-126.3"/>
</g>
<!-- CategoriasComponent -->
<g id="node5" class="node">
<title>CategoriasComponent</title>
<polygon fill="#ffffb3" stroke="black" points="2018.7,-84.8 1877.3,-84.8 1877.3,-48.8 2018.7,-48.8 2018.7,-84.8"/>
<text text-anchor="middle" x="1948" y="-62.6" font-family="Times,serif" font-size="14.00">CategoriasComponent</text>
</g>
<!-- CategoriasComponent&#45;&gt;AppModule -->
<g id="edge5" class="edge">
<title>CategoriasComponent&#45;&gt;AppModule</title>
<path fill="none" stroke="black" d="M1948,-84.82C1948,-102.17 1948,-125.8 1948,-125.8 1948,-125.8 1510.69,-125.8 1510.69,-125.8"/>
<polygon fill="black" stroke="black" points="1510.69,-122.3 1500.69,-125.8 1510.69,-129.3 1510.69,-122.3"/>
</g>
<!-- ContatoComponent -->
<g id="node6" class="node">
<title>ContatoComponent</title>
<polygon fill="#ffffb3" stroke="black" points="1859.67,-84.8 1734.33,-84.8 1734.33,-48.8 1859.67,-48.8 1859.67,-84.8"/>
<text text-anchor="middle" x="1797" y="-62.6" font-family="Times,serif" font-size="14.00">ContatoComponent</text>
</g>
<!-- ContatoComponent&#45;&gt;AppModule -->
<g id="edge6" class="edge">
<title>ContatoComponent&#45;&gt;AppModule</title>
<path fill="none" stroke="black" d="M1797,-84.81C1797,-100.85 1797,-121.8 1797,-121.8 1797,-121.8 1510.78,-121.8 1510.78,-121.8"/>
<polygon fill="black" stroke="black" points="1510.78,-118.3 1500.78,-121.8 1510.78,-125.3 1510.78,-118.3"/>
</g>
<!-- EntrarComponent -->
<g id="node7" class="node">
<title>EntrarComponent</title>
<polygon fill="#ffffb3" stroke="black" points="1716.31,-84.8 1599.69,-84.8 1599.69,-48.8 1716.31,-48.8 1716.31,-84.8"/>
<text text-anchor="middle" x="1658" y="-62.6" font-family="Times,serif" font-size="14.00">EntrarComponent</text>
</g>
<!-- EntrarComponent&#45;&gt;AppModule -->
<g id="edge7" class="edge">
<title>EntrarComponent&#45;&gt;AppModule</title>
<path fill="none" stroke="black" d="M1658,-84.92C1658,-99.58 1658,-117.8 1658,-117.8 1658,-117.8 1510.72,-117.8 1510.72,-117.8"/>
<polygon fill="black" stroke="black" points="1510.72,-114.3 1500.72,-117.8 1510.72,-121.3 1510.72,-114.3"/>
</g>
<!-- InicioComponent -->
<g id="node8" class="node">
<title>InicioComponent</title>
<polygon fill="#ffffb3" stroke="black" points="1581.99,-84.8 1468.01,-84.8 1468.01,-48.8 1581.99,-48.8 1581.99,-84.8"/>
<text text-anchor="middle" x="1525" y="-62.6" font-family="Times,serif" font-size="14.00">InicioComponent</text>
</g>
<!-- InicioComponent&#45;&gt;AppModule -->
<g id="edge8" class="edge">
<title>InicioComponent&#45;&gt;AppModule</title>
<path fill="none" stroke="black" d="M1484.42,-84.91C1484.42,-84.91 1484.42,-103.79 1484.42,-103.79"/>
<polygon fill="black" stroke="black" points="1480.92,-103.79 1484.42,-113.79 1487.92,-103.79 1480.92,-103.79"/>
</g>
<!-- MenuComponent -->
<g id="node9" class="node">
<title>MenuComponent</title>
<polygon fill="#ffffb3" stroke="black" points="1449.99,-84.8 1336.01,-84.8 1336.01,-48.8 1449.99,-48.8 1449.99,-84.8"/>
<text text-anchor="middle" x="1393" y="-62.6" font-family="Times,serif" font-size="14.00">MenuComponent</text>
</g>
<!-- MenuComponent&#45;&gt;AppModule -->
<g id="edge9" class="edge">
<title>MenuComponent&#45;&gt;AppModule</title>
<path fill="none" stroke="black" d="M1433.58,-84.91C1433.58,-84.91 1433.58,-103.79 1433.58,-103.79"/>
<polygon fill="black" stroke="black" points="1430.08,-103.79 1433.58,-113.79 1437.08,-103.79 1430.08,-103.79"/>
</g>
<!-- MeusanunciosComponent -->
<g id="node10" class="node">
<title>MeusanunciosComponent</title>
<polygon fill="#ffffb3" stroke="black" points="1318.2,-84.8 1155.8,-84.8 1155.8,-48.8 1318.2,-48.8 1318.2,-84.8"/>
<text text-anchor="middle" x="1237" y="-62.6" font-family="Times,serif" font-size="14.00">MeusanunciosComponent</text>
</g>
<!-- MeusanunciosComponent&#45;&gt;AppModule -->
<g id="edge10" class="edge">
<title>MeusanunciosComponent&#45;&gt;AppModule</title>
<path fill="none" stroke="black" d="M1237,-84.92C1237,-99.58 1237,-117.8 1237,-117.8 1237,-117.8 1407.24,-117.8 1407.24,-117.8"/>
<polygon fill="black" stroke="black" points="1407.24,-121.3 1417.24,-117.8 1407.24,-114.3 1407.24,-121.3"/>
</g>
<!-- PesquisaComponent -->
<g id="node11" class="node">
<title>PesquisaComponent</title>
<polygon fill="#ffffb3" stroke="black" points="1138.32,-84.8 1007.68,-84.8 1007.68,-48.8 1138.32,-48.8 1138.32,-84.8"/>
<text text-anchor="middle" x="1073" y="-62.6" font-family="Times,serif" font-size="14.00">PesquisaComponent</text>
</g>
<!-- PesquisaComponent&#45;&gt;AppModule -->
<g id="edge11" class="edge">
<title>PesquisaComponent&#45;&gt;AppModule</title>
<path fill="none" stroke="black" d="M1073,-84.81C1073,-100.85 1073,-121.8 1073,-121.8 1073,-121.8 1407.32,-121.8 1407.32,-121.8"/>
<polygon fill="black" stroke="black" points="1407.32,-125.3 1417.32,-121.8 1407.32,-118.3 1407.32,-125.3"/>
</g>
<!-- ProdutoDeleteComponent -->
<g id="node12" class="node">
<title>ProdutoDeleteComponent</title>
<polygon fill="#ffffb3" stroke="black" points="990.2,-84.8 827.8,-84.8 827.8,-48.8 990.2,-48.8 990.2,-84.8"/>
<text text-anchor="middle" x="909" y="-62.6" font-family="Times,serif" font-size="14.00">ProdutoDeleteComponent</text>
</g>
<!-- ProdutoDeleteComponent&#45;&gt;AppModule -->
<g id="edge12" class="edge">
<title>ProdutoDeleteComponent&#45;&gt;AppModule</title>
<path fill="none" stroke="black" d="M909,-84.82C909,-102.17 909,-125.8 909,-125.8 909,-125.8 1407.21,-125.8 1407.21,-125.8"/>
<polygon fill="black" stroke="black" points="1407.21,-129.3 1417.21,-125.8 1407.21,-122.3 1407.21,-129.3"/>
</g>
<!-- ProdutoEditComponent -->
<g id="node13" class="node">
<title>ProdutoEditComponent</title>
<polygon fill="#ffffb3" stroke="black" points="809.5,-84.8 660.5,-84.8 660.5,-48.8 809.5,-48.8 809.5,-84.8"/>
<text text-anchor="middle" x="735" y="-62.6" font-family="Times,serif" font-size="14.00">ProdutoEditComponent</text>
</g>
<!-- ProdutoEditComponent&#45;&gt;AppModule -->
<g id="edge13" class="edge">
<title>ProdutoEditComponent&#45;&gt;AppModule</title>
<path fill="none" stroke="black" d="M735,-85.02C735,-103.63 735,-129.8 735,-129.8 735,-129.8 1407.21,-129.8 1407.21,-129.8"/>
<polygon fill="black" stroke="black" points="1407.21,-133.3 1417.21,-129.8 1407.21,-126.3 1407.21,-133.3"/>
</g>
<!-- RodapeComponent -->
<g id="node14" class="node">
<title>RodapeComponent</title>
<polygon fill="#ffffb3" stroke="black" points="642.1,-84.8 517.9,-84.8 517.9,-48.8 642.1,-48.8 642.1,-84.8"/>
<text text-anchor="middle" x="580" y="-62.6" font-family="Times,serif" font-size="14.00">RodapeComponent</text>
</g>
<!-- RodapeComponent&#45;&gt;AppModule -->
<g id="edge14" class="edge">
<title>RodapeComponent&#45;&gt;AppModule</title>
<path fill="none" stroke="black" d="M580,-85.11C580,-104.95 580,-133.8 580,-133.8 580,-133.8 1407.2,-133.8 1407.2,-133.8"/>
<polygon fill="black" stroke="black" points="1407.2,-137.3 1417.2,-133.8 1407.2,-130.3 1407.2,-137.3"/>
</g>
<!-- SobrenosComponent -->
<g id="node15" class="node">
<title>SobrenosComponent</title>
<polygon fill="#ffffb3" stroke="black" points="499.94,-84.8 366.06,-84.8 366.06,-48.8 499.94,-48.8 499.94,-84.8"/>
<text text-anchor="middle" x="433" y="-62.6" font-family="Times,serif" font-size="14.00">SobrenosComponent</text>
</g>
<!-- SobrenosComponent&#45;&gt;AppModule -->
<g id="edge15" class="edge">
<title>SobrenosComponent&#45;&gt;AppModule</title>
<path fill="none" stroke="black" d="M433,-85.08C433,-106.12 433,-137.8 433,-137.8 433,-137.8 1407.19,-137.8 1407.19,-137.8"/>
<polygon fill="black" stroke="black" points="1407.19,-141.3 1417.19,-137.8 1407.19,-134.3 1407.19,-141.3"/>
</g>
<!-- TodasCategoriasComponent -->
<g id="node16" class="node">
<title>TodasCategoriasComponent</title>
<polygon fill="#ffffb3" stroke="black" points="348.91,-84.8 173.09,-84.8 173.09,-48.8 348.91,-48.8 348.91,-84.8"/>
<text text-anchor="middle" x="261" y="-62.6" font-family="Times,serif" font-size="14.00">TodasCategoriasComponent</text>
</g>
<!-- TodasCategoriasComponent&#45;&gt;AppModule -->
<g id="edge16" class="edge">
<title>TodasCategoriasComponent&#45;&gt;AppModule</title>
<path fill="none" stroke="black" d="M261,-84.96C261,-107.15 261,-141.8 261,-141.8 261,-141.8 1407.06,-141.8 1407.06,-141.8"/>
<polygon fill="black" stroke="black" points="1407.07,-145.3 1417.06,-141.8 1407.06,-138.3 1407.07,-145.3"/>
</g>
<!-- UserEditComponent -->
<g id="node17" class="node">
<title>UserEditComponent</title>
<polygon fill="#ffffb3" stroke="black" points="155.59,-84.8 24.41,-84.8 24.41,-48.8 155.59,-48.8 155.59,-84.8"/>
<text text-anchor="middle" x="90" y="-62.6" font-family="Times,serif" font-size="14.00">UserEditComponent</text>
</g>
<!-- UserEditComponent&#45;&gt;AppModule -->
<g id="edge17" class="edge">
<title>UserEditComponent&#45;&gt;AppModule</title>
<path fill="none" stroke="black" d="M90,-85.12C90,-108.46 90,-145.8 90,-145.8 90,-145.8 1407.28,-145.8 1407.28,-145.8"/>
<polygon fill="black" stroke="black" points="1407.28,-149.3 1417.28,-145.8 1407.28,-142.3 1407.28,-149.3"/>
</g>
<!-- AppComponent  -->
<g id="node20" class="node">
<title>AppComponent </title>
<polygon fill="#80b1d3" stroke="black" points="1513.44,-214.8 1404.56,-214.8 1404.56,-178.8 1513.44,-178.8 1513.44,-214.8"/>
<text text-anchor="middle" x="1459" y="-192.6" font-family="Times,serif" font-size="14.00">AppComponent </text>
</g>
<!-- AppModule&#45;&gt;AppComponent  -->
<g id="edge19" class="edge">
<title>AppModule&#45;&gt;AppComponent </title>
<path fill="none" stroke="black" stroke-dasharray="1,5" d="M1459,-149.91C1459,-149.91 1459,-168.79 1459,-168.79"/>
<polygon fill="black" stroke="black" points="1455.5,-168.79 1459,-178.79 1462.5,-168.79 1455.5,-168.79"/>
</g>
<!-- AppRoutingModule -->
<g id="node19" class="node">
<title>AppRoutingModule</title>
<polygon fill="#8dd3c7" stroke="black" points="2734.27,-84.8 2731.27,-88.8 2710.27,-88.8 2707.27,-84.8 2605.73,-84.8 2605.73,-48.8 2734.27,-48.8 2734.27,-84.8"/>
<text text-anchor="middle" x="2670" y="-62.6" font-family="Times,serif" font-size="14.00">AppRoutingModule</text>
</g>
<!-- AppRoutingModule&#45;&gt;AppModule -->
<g id="edge18" class="edge">
<title>AppRoutingModule&#45;&gt;AppModule</title>
<path fill="none" stroke="black" d="M2670,-85.12C2670,-108.46 2670,-145.8 2670,-145.8 2670,-145.8 1510.69,-145.8 1510.69,-145.8"/>
<polygon fill="black" stroke="black" points="1510.69,-142.3 1500.69,-145.8 1510.69,-149.3 1510.69,-142.3"/>
</g>
</g>
</svg>
